<svg version="1.1" xmlns="http://www.w3.org/2000/svg" xmlns:xlink="http://www.w3.org/1999/xlink" width="48" height="48"><defs><linearGradient x1="13.35185" y1="13.27732" x2="57.92962" y2="58.00415" gradientUnits="userSpaceOnUse" id="color-1"><stop offset="0" stop-color="#000000" stop-opacity="0.32"></stop><stop offset="1" stop-color="#000000" stop-opacity="0"></stop></linearGradient><filter id="dropshadow-base"><feColorMatrix type="matrix" values="0 0 0 0 0  0 0 0 0 0  0 0 0 0 0  0 0 0 .8 0"></feColorMatrix> <feOffset dx="0" dy="1"></feOffset> <feGaussianBlur stdDeviation="1"></feGaussianBlur> <feComposite in="SourceGraphic"></feComposite></filter><filter id="dropshadow-banner" x="-10%" y="-10%" width="120%" height="130%"><feColorMatrix type="matrix" values="0 0 0 0 0  0 0 0 0 0  0 0 0 0 0  0 0 0 .4 0"></feColorMatrix> <feOffset dx="0" dy="1"></feOffset> <feGaussianBlur stdDeviation="0.5"></feGaussianBlur> <feComposite in="SourceGraphic"></feComposite></filter></defs><g fill="none" fill-rule="nonzero" stroke="none" stroke-width="none" stroke-linecap="butt" stroke-linejoin="miter" stroke-miterlimit="10" stroke-dasharray="" stroke-dashoffset="0" font-family="none" font-weight="none" font-size="none" text-anchor="none" style="mix-blend-mode: normal"><path d="M2,24c0,-12.15026 9.84974,-22 22,-22c12.15026,0 22,9.84974 22,22c0,12.15026 -9.84974,22 -22,22c-12.15026,0 -22,-9.84974 -22,-22z" id="base 1 5" fill="#cf4848" stroke-width="1"></path><path d="M28.38704,14.91181l1.36829,-1.62916l4.89282,4.10486l10.92862,10.92862c-0.20248,1.01791 -0.4752,2.01051 -0.81288,2.97254zM14.72014,19.01134l-1.36829,-1.62916l4.89282,-4.10486l2.75548,2.75548c0.94175,-0.3094 1.9483,-0.47678 2.99452,-0.47678c2.64939,0 5.04709,1.07334 6.78218,2.80843l13.69864,13.69864c-2.45099,6.21907 -7.65345,11.05274 -14.10761,13.00124l-13.14483,-13.14483c-1.73463,-1.73463 -2.80638,-4.13208 -2.80638,-6.78014c0,-1.83937 0.5171,-3.55782 1.41427,-5.01721z" fill="url(#color-1)" stroke-width="1"></path><path d="M34.64815,17.3875l-4.89282,-4.10486l-1.36829,1.62917l4.89282,4.10486zM19.61296,14.90648l-1.36829,-1.62917l-4.89282,4.10486l1.36829,1.62917zM24.53241,19.81528h-1.59722v6.38889l5.05255,3.04005l0.80394,-1.31505l-4.25926,-2.52361zM23.99468,15.55602c-5.29745,0 -9.57801,4.2912 -9.57801,9.58333c0,5.29213 4.28055,9.58333 9.57801,9.58333c5.29745,0 9.58866,-4.2912 9.58866,-9.58333c0,-5.29213 -4.2912,-9.58333 -9.58866,-9.58333zM24,32.59305c-4.11551,0 -7.4537,-3.33819 -7.4537,-7.4537c0,-4.11551 3.33819,-7.4537 7.4537,-7.4537c4.11551,0 7.4537,3.33819 7.4537,7.4537c0,4.11551 -3.33287,7.4537 -7.4537,7.4537z" fill="none" stroke-width="0"></path><path d="M33.27986,19.01667l-4.89282,-4.10486l1.36829,-1.62917l4.89282,4.10486zM14.72014,19.01134l-1.36829,-1.62917l4.89282,-4.10486l1.36829,1.62917zM24.53241,25.40556l4.25926,2.52361l-0.80394,1.31505l-5.05255,-3.04005v-6.38889h1.59722zM33.58333,25.13935c0,5.29213 -4.2912,9.58333 -9.58866,9.58333c-5.29745,0 -9.57801,-4.2912 -9.57801,-9.58333c0,-5.29213 4.28055,-9.58333 9.57801,-9.58333c5.29745,0 9.58866,4.2912 9.58866,9.58333zM31.4537,25.13935c0,-4.11551 -3.33819,-7.4537 -7.4537,-7.4537c-4.11551,0 -7.4537,3.33819 -7.4537,7.4537c0,4.11551 3.33819,7.4537 7.4537,7.4537c4.12083,0 7.4537,-3.33819 7.4537,-7.4537z" fill="#ffffff" stroke-width="0"></path><path d="M2,24c0,-12.15026 9.84974,-22 22,-22c12.15026,0 22,9.84974 22,22c0,12.15026 -9.84974,22 -22,22c-12.15026,0 -22,-9.84974 -22,-22z" id="base 1 1 1" fill="none" stroke-width="1"></path><g fill="#000000" stroke-width="1" font-family="Roboto, sans-serif" font-weight="400" font-size="14" text-anchor="start"></g><rect x="2" y="2" width="44" height="22" fill="none" stroke-width="1"></rect><path d="M2,24v-22h44v22z" fill="none" stroke-width="1"></path><path d="M2,24v-22h44v22z" fill="none" stroke-width="1"></path><path d="M2,24v-22h44v22z" fill="none" stroke-width="1"></path><path d="M2,24v-22h44v22z" fill="none" stroke-width="1"></path></g></svg>