<?xml version="1.0" standalone="no"?>
<!DOCTYPE svg PUBLIC "-//W3C//DTD SVG 20010904//EN"
 "http://www.w3.org/TR/2001/REC-SVG-20010904/DTD/svg10.dtd">
<svg version="1.0" xmlns="http://www.w3.org/2000/svg"
 width="512.000000pt" height="512.000000pt" viewBox="0 0 512.000000 512.000000"
 preserveAspectRatio="xMidYMid meet">
<metadata>
Created by potrace 1.11, written by Peter Selinger 2001-2013
</metadata>
<g transform="translate(0.000000,512.000000) scale(0.100000,-0.100000)"
fill="#000000" stroke="none">
<path d="M2345 5083 c-224 -149 -337 -354 -354 -637 l-6 -110 -158 -32 c-305
-62 -439 -113 -538 -201 -183 -165 -223 -443 -94 -657 19 -32 35 -60 35 -61 0
-1 -28 -13 -62 -25 -299 -108 -498 -317 -575 -601 -12 -44 -17 -100 -17 -179
1 -129 22 -225 76 -343 17 -37 29 -69 27 -70 -2 -2 -35 -20 -74 -41 -98 -53
-199 -132 -291 -229 -279 -291 -378 -697 -263 -1072 92 -296 285 -530 563
-679 222 -119 409 -154 730 -136 352 20 621 68 1015 181 l174 50 71 -29 c284
-118 664 -182 1206 -202 393 -15 517 3 715 100 224 110 390 278 496 504 133
286 124 634 -25 906 -48 89 -99 160 -166 233 l-63 68 12 69 c27 165 8 383 -49
552 -77 229 -237 444 -423 568 l-68 45 8 45 c5 25 8 104 8 175 -1 106 -5 144
-24 205 -92 299 -321 514 -637 598 -48 12 -68 23 -67 33 1 7 8 44 15 82 31
169 -56 353 -204 428 -32 16 -142 51 -245 79 -227 60 -342 105 -448 176 -74
49 -195 159 -231 212 -19 28 -21 28 -69 -5z m-252 -1566 c131 -65 240 -198
294 -362 25 -73 27 -93 27 -240 0 -147 -2 -167 -27 -240 -57 -171 -157 -294
-293 -361 -74 -37 -83 -39 -174 -39 -91 0 -100 2 -174 39 -136 67 -236 190
-293 361 -25 73 -27 93 -27 240 0 147 2 167 27 240 63 189 191 330 352 388 37
13 71 17 132 14 70 -3 92 -9 156 -40z m1369 22 c165 -55 285 -193 350 -399 20
-65 23 -96 23 -225 0 -129 -3 -160 -23 -225 -94 -300 -331 -469 -568 -406
-172 46 -320 216 -381 436 -24 89 -24 300 0 390 29 108 92 224 163 299 127
135 283 182 436 130z m-617 -2130 c263 -23 470 -90 630 -204 33 -24 73 -56 88
-73 l28 -30 -28 -20 c-100 -71 -320 -155 -508 -194 -98 -20 -137 -23 -360 -22
-235 0 -257 2 -375 28 -69 15 -172 46 -230 68 -119 46 -270 126 -270 143 0 13
71 75 143 124 155 105 443 182 717 190 25 0 99 -4 165 -10z"/>
<path d="M1894 3251 c-59 -27 -112 -84 -148 -160 -29 -61 -31 -74 -31 -176 0
-100 3 -116 28 -170 112 -241 377 -245 494 -7 26 53 28 66 28 177 0 112 -2
124 -29 179 -34 70 -92 131 -149 157 -54 24 -139 24 -193 0z"/>
<path d="M3174 3251 c-59 -27 -112 -84 -148 -160 -29 -61 -31 -74 -31 -176 0
-100 3 -116 28 -170 112 -241 377 -245 494 -7 26 53 28 66 28 177 0 112 -2
124 -29 179 -34 70 -92 131 -149 157 -54 24 -139 24 -193 0z"/>
</g>
</svg>
